<svg width="1200" height="630" viewBox="0 0 1200 630" fill="none" xmlns="http://www.w3.org/2000/svg">
<rect width="1200" height="630" fill="white"/>
<path d="M328.863 287V218.84H371.679V226.904H337.119V248.888H370.527V256.76H337.119V278.936H372.447V287H328.863ZM385.77 287V218.84H406.89C417.386 218.84 425.45 221.816 431.082 227.768C436.778 233.656 439.626 242.072 439.626 253.016C439.626 263.896 436.842 272.28 431.274 278.168C425.706 284.056 417.77 287 407.466 287H385.77ZM394.026 278.936H406.89C414.89 278.936 420.906 276.792 424.938 272.504C428.97 268.152 430.986 261.656 430.986 253.016C430.986 244.248 428.97 237.72 424.938 233.432C420.906 229.08 414.89 226.904 406.89 226.904H394.026V278.936ZM462.663 287L444.711 218.84H453.734L467.751 275.672L481.671 218.84H491.079L505.095 275.672L519.015 218.84H528.135L510.183 287H499.815L486.375 234.2L472.935 287H462.663ZM538.488 287V218.84H546.744V287H538.488ZM562.488 287V218.84H574.2L607.896 278.744V218.84H616.152V287H603.864L570.744 228.248V287H562.488ZM320.222 413.536C315.998 413.536 312.254 412.544 308.99 410.56C305.726 408.512 303.166 405.696 301.31 402.112C299.518 398.528 298.59 394.4 298.526 389.728L306.974 389.152C307.038 394.4 308.222 398.432 310.526 401.248C312.83 404.064 316.062 405.472 320.222 405.472C324.574 405.472 327.902 403.968 330.206 400.96C332.574 397.952 333.758 393.696 333.758 388.192V343.84H342.014V388.192C342.014 393.376 341.118 397.888 339.326 401.728C337.534 405.504 335.006 408.416 331.742 410.464C328.542 412.512 324.702 413.536 320.222 413.536ZM382.495 413.536C377.247 413.536 372.671 412.512 368.767 410.464C364.927 408.416 361.951 405.504 359.839 401.728C357.791 397.888 356.767 393.376 356.767 388.192V343.744H365.023V388.192C365.023 393.696 366.527 397.952 369.535 400.96C372.607 403.968 376.927 405.472 382.495 405.472C387.999 405.472 392.255 403.968 395.263 400.96C398.335 397.952 399.871 393.696 399.871 388.192V343.744H408.127V388.192C408.127 393.376 407.071 397.888 404.959 401.728C402.911 405.504 399.967 408.416 396.127 410.464C392.287 412.512 387.743 413.536 382.495 413.536ZM424.395 412V343.84H432.651V408.16L428.523 403.936H466.731V412H424.395ZM475.301 412V343.84H483.557V412H475.301ZM493.326 412L517.902 343.84H529.038L553.614 412H544.59L537.774 392.608H509.166L502.35 412H493.326ZM511.95 384.544H534.99L523.47 351.04L511.95 384.544ZM562.488 412V343.84H574.2L607.896 403.744V343.84H616.152V412H603.864L570.744 353.248V412H562.488Z" fill="black"/>
<path d="M813.643 346.928L770.059 327.344V317.168L813.643 297.584V305.648L775.435 322.736V321.776L813.643 338.864V346.928ZM822.278 360.56L850.598 278H858.278L829.958 360.56H822.278ZM869.363 346.928V338.864L907.571 321.776V322.736L869.363 305.648V297.584L912.947 317.168V327.344L869.363 346.928Z" fill="#7D7D7D"/>
<line x1="697" y1="186" x2="697" y2="444" stroke="#7D7D7D" stroke-width="4"/>
</svg>
